#!OML:ASF F:\VICON\USERDATA\INSTALL\rory3\rory3.ASF
:FULLY-SPECIFIED
:DEGREES
531
root 1.51269 17.5652 7.97758 -362.714 -4.08284 -359.412
lowerback 12.5496 0.379774 -5.57236
upperback 0.735466 -0.290565 -0.0410477
thorax -6.2473 0.012869 3.15687
lowerneck -13.6276 -8.3309 -13.5649
upperneck 32.2375 -13.572 14.0039
head 15.677 -5.83063 5.81875
rclavicle 1.26725e-014 4.37326e-015
rhumerus -37.4943 -17.1314 -77.3884
rradius 36.2777
rwrist 5.64133
rhand -17.8751 9.13282
rfingers 7.12502
rthumb 8.39086 -20.6805
lclavicle 1.26725e-014 4.37326e-015
lhumerus -32.1501 -6.26563 90.4858
lradius 35.5452
lwrist -7.12655
lhand -19.9565 28.7394
lfingers 7.12502
lthumb 6.38183 58.6233
rfemur -16.5984 -3.99605 20.0782
rtibia 44.3839
rfoot -22.1927 15.2951
rtoes -11.68
lfemur -9.90349 -0.785744 -21.4933
ltibia 32.8551
lfoot -16.1602 -7.77211
ltoes -5.34671
532
root 1.47191 17.5735 7.98133 -362.712 -4.18281 -358.922
lowerback 12.5955 0.410419 -5.97733
upperback 0.738091 -0.323694 -0.238603
thorax -6.26685 0.00569148 3.18228
lowerneck -13.6583 -8.38162 -13.6506
upperneck 32.117 -13.6119 14.0285
head 15.6447 -5.85476 5.82767
rclavicle 2.98177e-016 1.47101e-014
rhumerus -37.5112 -17.7281 -77.467
rradius 36.1789
rwrist 5.26414
rhand -18.1682 9.02519
rfingers 7.12502
rthumb 8.10802 -20.7993
lclavicle 2.98177e-016 1.47101e-014
lhumerus -31.8492 -5.8431 90.019
lradius 35.0577
lwrist -7.48384
lhand -19.697 28.543
lfingers 7.12502
lthumb 6.63234 58.4191
rfemur -17.0532 -4.31099 19.3068
rtibia 45.1623
rfoot -22.2651 16.5548
rtoes -14.6234
lfemur -9.73125 -0.793163 -21.9636
ltibia 32.5748
lfoot -16.1734 -7.19399
ltoes -6.04834
533
root 1.42906 17.5786 7.98125 -362.704 -4.30399 -358.633
lowerback 12.6296 0.444696 -6.1939
upperback 0.767508 -0.319705 -0.376052
thorax -6.25504 0.0106916 3.15813
lowerneck -13.6255 -8.4614 -13.8106
upperneck 31.9393 -13.7086 14.147
head 15.5995 -5.90456 5.87851
rclavicle 1.21756e-015 2.78299e-015
rhumerus -37.552 -18.4511 -77.485
rradius 36.0937
rwrist 5.14461
rhand -18.522 8.83654
rfingers 7.12502
rthumb 7.76651 -21.0008
lclavicle 1.21756e-015 2.78299e-015
lhumerus -31.5689 -5.43327 89.5909
lradius 34.5986
lwrist -7.45973
lhand -19.8368 28.2325
lfingers 7.12502
lthumb 6.49734 58.1128
rfemur -17.523 -4.52926 18.7514
rtibia 45.941
rfoot -22.8577 17.5114
rtoes -18.1137
lfemur -9.55741 -0.898866 -22.1833
ltibia 32.2465
lfoot -16.0483 -6.69998
ltoes -6.12791
534
root 1.38611 17.5826 7.97673 -362.721 -4.38225 -358.41
lowerback 12.8243 0.475023 -6.35346
upperback 0.755155 -0.32468 -0.478809
thorax -6.37691 0.0153005 3.14129
lowerneck -13.6952 -8.51727 -13.8747
upperneck 31.8523 -13.746 14.1279
head 15.5858 -5.92744 5.86541
rclavicle 8.3738e-015 -3.97569e-016
rhumerus -37.5989 -19.0212 -77.4987
rradius 35.925
rwrist 5.05236
rhand -18.9919 8.71745
rfingers 7.12502
rthumb 7.31296 -21.1362
lclavicle 8.3738e-015 -3.97569e-016
lhumerus -31.317 -5.05874 89.2246
lradius 34.0785
lwrist -6.88387
lhand -20.5647 27.4683
lfingers 7.12502
lthumb 5.79459 57.3691
rfemur -17.985 -4.70978 18.2583
rtibia 46.6929
rfoot -23.1061 18.2341
rtoes -19.4394
lfemur -9.38337 -1.05252 -22.2844
ltibia 31.8774
lfoot -15.8136 -6.55565
ltoes -5.35106
535
root 1.34397 17.5861 7.97927 -362.814 -4.49546 -358.149
lowerback 13.031 0.509524 -6.57008
upperback 0.773265 -0.332149 -0.565413
thorax -6.47239 0.0191704 3.17412
lowerneck -13.7582 -8.51469 -13.8423
upperneck 31.7283 -13.6732 13.9963
head 15.5073 -5.90451 5.80503
rclavicle -2.75814e-015 -2.14687e-014
rhumerus -37.5224 -19.3062 -77.605
rradius 35.6218
rwrist 4.63879
rhand -19.4207 8.83037
rfingers 7.12502
rthumb 6.89904 -21.0372
lclavicle -2.75814e-015 -2.14687e-014
lhumerus -31.0072 -4.59573 88.8434
lradius 33.411
lwrist -6.4292
lhand -20.8908 27.7747
lfingers 7.12502
lthumb 5.47981 57.6839
rfemur -18.2936 -4.95968 17.6682
rtibia 47.3569
rfoot -22.9289 18.7324
rtoes -17.8319
lfemur -9.10521 -1.18744 -22.4326
ltibia 31.5306
lfoot -15.6568 -6.41841
ltoes -5.10648
536
root 1.30133 17.5878 7.9858 -362.867 -4.66041 -357.893
lowerback 13.1185 0.558914 -6.80424
upperback 0.814593 -0.309921 -0.610762
thorax -6.47901 0.0353029 3.25439
lowerneck -13.8869 -8.54523 -13.9289
upperneck 31.6778 -13.6201 13.8654
head 15.4962 -5.90099 5.76517
rclavicle 1.49089e-014 2.74323e-014
rhumerus -37.4071 -19.3616 -77.757
rradius 35.4232
rwrist 4.20249
rhand -19.7743 8.62894
rfingers 7.12502
rthumb 6.55771 -21.2495
lclavicle 1.49089e-014 2.74323e-014
lhumerus -30.6925 -3.83284 88.4243
lradius 32.7703
lwrist -6.44555
lhand -20.3768 29.0035
lfingers 7.12502
lthumb 5.97605 58.8992
rfemur -18.5794 -5.16027 17.0417
rtibia 47.8874
rfoot -23.2459 18.4109
rtoes -16.4901
lfemur -8.85306 -1.32236 -22.5814
ltibia 31.2256
lfoot -15.5823 -6.07877
ltoes -5.50486
537
root 1.25645 17.5929 7.98997 -362.914 -4.80071 -357.859
lowerback 13.2266 0.59739 -6.81118
upperback 0.853063 -0.266644 -0.599872
thorax -6.50286 0.0566008 3.26251
lowerneck -13.9824 -8.62063 -14.0704
upperneck 31.6088 -13.6402 13.7852
head 15.4946 -5.93104 5.74231
rclavicle 6.60959e-015 3.18055e-015
rhumerus -37.275 -19.7328 -77.7294
rradius 35.0931
rwrist 4.3629
rhand -19.986 8.56074
rfingers 7.12502
rthumb 6.3533 -21.324
lclavicle 6.60959e-015 3.18055e-015
lhumerus -30.368 -2.81631 87.8945
lradius 32.1145
lwrist -6.78545
lhand -20.2255 28.8538
lfingers 7.12502
lthumb 6.12214 58.7454
rfemur -18.7894 -5.26571 16.6496
rtibia 48.2649
rfoot -23.884 16.6989
rtoes -17.1747
lfemur -8.59242 -1.37533 -22.4603
ltibia 30.9515
lfoot -15.5401 -5.78838
ltoes -6.20281
538
root 1.20993 17.6025 7.99099 -362.903 -4.80059 -358.026
lowerback 13.2994 0.562812 -6.60183
upperback 0.903321 -0.281778 -0.554192
thorax -6.48837 0.0422196 3.19622
lowerneck -14.0852 -8.68738 -14.0914
upperneck 31.4932 -13.6518 13.6458
head 15.4523 -5.94916 5.67026
rclavicle -2.13694e-015 7.95139e-015
rhumerus -37.0129 -20.419 -77.5851
rradius 34.4505
rwrist 5.24678
rhand -19.905 8.87364
rfingers 7.12502
rthumb 6.43156 -21.0087
lclavicle -2.13694e-015 7.95139e-015
lhumerus -29.9141 -1.50782 87.2248
lradius 31.3365
lwrist -7.44998
lhand -20.6436 27.5161
lfingers 7.12502
lthumb 5.71849 57.419
rfemur -18.9583 -5.38413 16.4845
rtibia 48.4772
rfoot -24.1903 13.9706
rtoes -17.7642
lfemur -8.42344 -1.3786 -22.0728
ltibia 30.6803
lfoot -15.5704 -5.83823
ltoes -6.64159
539
root 1.16305 17.6115 7.99475 -362.935 -4.81429 -358.23
lowerback 13.3831 0.530347 -6.38105
upperback 0.942137 -0.289499 -0.450787
thorax -6.4928 0.0329218 3.18359
lowerneck -14.0571 -8.68775 -14.1512
upperneck 31.3637 -13.5536 13.4783
head 15.351 -5.93447 5.61884
rclavicle -1.66482e-015 1.94809e-014
rhumerus -36.8826 -20.6346 -77.535
rradius 34.0533
rwrist 5.84328
rhand -19.845 8.66958
rfingers 7.12502
rthumb 6.48946 -21.211
lclavicle -1.66482e-015 1.94809e-014
lhumerus -29.5733 -0.294419 86.6938
lradius 30.6168
lwrist -7.88238
lhand -20.7288 27.1859
lfingers 7.12502
lthumb 5.63619 57.0909
rfemur -18.9816 -5.46994 16.2791
rtibia 48.5366
rfoot -24.1208 11.33
rtoes -16.7467
lfemur -8.19122 -1.40066 -21.639
ltibia 30.4046
lfoot -15.5738 -5.95293
ltoes -6.20397
540
root 1.11738 17.6252 8.0073 -362.963 -4.97567 -358.405
lowerback 13.4233 0.567674 -6.08759
upperback 0.947389 -0.195519 -0.403824
thorax -6.51953 0.0717433 3.05045
lowerneck -13.9718 -8.67106 -14.2617
upperneck 31.2469 -13.4828 13.4675
head 15.2704 -5.92228 5.64356
rclavicle -1.93815e-015 4.37326e-015
rhumerus -36.9259 -20.7686 -77.5174
rradius 33.8659
rwrist 6.29357
rhand -19.9154 8.15527
rfingers 7.12502
rthumb 6.42151 -21.7274
lclavicle -1.93815e-015 4.37326e-015
lhumerus -29.3837 0.58613 86.2336
lradius 30.0829
lwrist -8.05148
lhand -20.3526 28.0681
lfingers 7.12502
lthumb 5.99939 57.9631
rfemur -18.9509 -5.44448 15.9632
rtibia 48.465
rfoot -23.7718 9.13104
rtoes -14.9584
lfemur -7.89023 -1.48564 -21.2934
ltibia 30.0904
lfoot -15.5605 -5.66153
ltoes -6.68563
541
root 1.0714 17.6366 8.02104 -362.988 -5.14532 -358.609
lowerback 13.4017 0.594476 -5.79336
upperback 0.994382 -0.107805 -0.335548
thorax -6.46565 0.104574 2.94026
lowerneck -14.0982 -8.67455 -14.2191
upperneck 31.2885 -13.4268 13.3001
head 15.2866 -5.90606 5.57185
rclavicle 7.45443e-016 4.37326e-015
rhumerus -36.9624 -21.0303 -77.3436
rradius 33.579
rwrist 7.21872
rhand -19.3308 8.67384
rfingers 7.12502
rthumb 6.98586 -21.1909
lclavicle 7.45443e-016 4.37326e-015
lhumerus -29.224 1.69864 85.7261
lradius 29.6917
lwrist -8.53379
lhand -24.6216 24.5291
lfingers 7.12502
lthumb 1.87698 54.5006
rfemur -18.906 -5.41688 15.673
rtibia 48.2769
rfoot -23.2763 6.86568
rtoes -13.7605
lfemur -7.59309 -1.44656 -20.9143
ltibia 29.7261
lfoot -15.4686 -5.49699
ltoes -7.43894
